<svg width="40" height="31" viewBox="0 0 40 31" fill="none" xmlns="http://www.w3.org/2000/svg">
<path d="M38.5253 0.0853739L0.93846 13.0695C0.333869 13.2781 0.199752 13.7894 0.917172 14.069L8.99825 17.2431L13.7881 19.1233L37.1713 2.29112C37.4864 2.06575 37.8483 2.48937 37.6205 2.73144L20.8644 20.4964V20.5006L19.9022 21.5502L21.1774 22.2222L31.7832 27.819C32.4027 28.1445 33.2053 27.8753 33.3841 27.122L39.5705 0.984786C39.7387 0.269013 39.2555 -0.167129 38.5253 0.0853739ZM13.7456 30.4024C13.7456 30.9158 14.0415 31.0598 14.4502 30.6967C14.9846 30.2188 20.5174 25.3524 20.5174 25.3524L13.7456 21.9217V30.4024Z" fill="white"/>
</svg>
