<svg width="36" height="39" viewBox="0 0 36 39" fill="none" xmlns="http://www.w3.org/2000/svg">
<path d="M31.2764 4.14702H29.3243V0.319824H25.42V4.14702H9.8028V0.319824H5.8985V4.14702H3.94635C1.77947 4.14702 0.0615747 5.86926 0.0615747 7.97422L0.0420532 34.7646C0.0420532 35.7797 0.453397 36.7531 1.1856 37.4709C1.91779 38.1886 2.91087 38.5918 3.94635 38.5918H31.2764C33.4238 38.5918 35.1807 36.8696 35.1807 34.7646V7.97422C35.1807 5.86926 33.4238 4.14702 31.2764 4.14702ZM31.2764 34.7646H3.94635V15.6286H31.2764V34.7646ZM11.7549 23.283H7.85065V19.4558H11.7549V23.283ZM19.5635 23.283H15.6592V19.4558H19.5635V23.283ZM27.3721 23.283H23.4678V19.4558H27.3721V23.283ZM11.7549 30.9374H7.85065V27.1102H11.7549V30.9374ZM19.5635 30.9374H15.6592V27.1102H19.5635V30.9374ZM27.3721 30.9374H23.4678V27.1102H27.3721V30.9374Z" fill="white"/>
</svg>
