<svg width="360" height="327" viewBox="0 0 360 327" fill="none" xmlns="http://www.w3.org/2000/svg">
<path d="M0.502441 131.052C0.502441 125.529 4.97959 121.052 10.5024 121.052H83.6342C89.1571 121.052 93.6342 125.529 93.6342 131.052V272.962H0.502441V131.052Z" fill="url(#paint0_linear_14_1974)"/>
<path d="M154.001 304.295V307.52H159.051V321.795H162.801V307.52H167.851V304.295H154.001ZM170.072 321.145C171.097 321.695 172.297 321.945 173.647 321.945C174.997 321.945 176.172 321.695 177.197 321.145C178.222 320.595 179.022 319.845 179.572 318.845C180.122 317.845 180.422 316.695 180.422 315.37C180.422 314.07 180.122 312.92 179.572 311.92C179.022 310.92 178.222 310.17 177.197 309.62C176.172 309.07 174.997 308.795 173.647 308.795C172.297 308.795 171.097 309.07 170.072 309.62C169.047 310.17 168.247 310.92 167.697 311.92C167.147 312.92 166.872 314.07 166.872 315.37C166.872 316.67 167.147 317.82 167.697 318.82C168.247 319.82 169.047 320.595 170.072 321.145ZM175.972 318.045C175.397 318.745 174.622 319.07 173.647 319.07C172.672 319.07 171.897 318.745 171.322 318.045C170.747 317.37 170.472 316.47 170.472 315.37C170.472 314.27 170.747 313.395 171.322 312.695C171.897 312.02 172.672 311.67 173.647 311.67C174.622 311.67 175.397 312.02 175.972 312.695C176.547 313.395 176.847 314.27 176.847 315.37C176.847 316.47 176.547 317.37 175.972 318.045ZM192.837 309.62C191.937 309.07 190.937 308.795 189.787 308.795C188.887 308.795 188.112 308.97 187.437 309.32C186.762 309.67 186.212 310.145 185.787 310.72L185.437 308.945H182.362V326.795H185.887V320.17C186.812 321.37 188.112 321.945 189.762 321.945C190.912 321.945 191.937 321.695 192.837 321.145C193.737 320.595 194.437 319.845 194.937 318.845C195.437 317.87 195.712 316.72 195.712 315.395C195.712 314.095 195.437 312.92 194.937 311.92C194.437 310.92 193.737 310.17 192.837 309.62ZM191.262 318.045C190.662 318.745 189.912 319.07 188.962 319.07C188.012 319.07 187.237 318.745 186.687 318.045C186.112 317.37 185.837 316.47 185.837 315.345C185.837 314.245 186.112 313.37 186.687 312.695C187.237 312.02 188.012 311.67 188.962 311.67C189.912 311.67 190.662 312.02 191.262 312.695C191.837 313.37 192.137 314.245 192.137 315.345C192.137 316.445 191.837 317.345 191.262 318.045ZM210.321 304.295H206.796V305.995C206.796 306.495 206.671 306.92 206.446 307.27C206.221 307.62 205.896 307.77 205.471 307.77H202.846V310.745H205.771C206.171 310.745 206.496 310.72 206.721 310.62V321.795H210.321V304.295Z" fill="#795CFF"/>
<path d="M284.384 304.295V307.52H289.434V321.795H293.184V307.52H298.234V304.295H284.384ZM300.455 321.145C301.48 321.695 302.68 321.945 304.03 321.945C305.38 321.945 306.555 321.695 307.58 321.145C308.605 320.595 309.405 319.845 309.955 318.845C310.505 317.845 310.805 316.695 310.805 315.37C310.805 314.07 310.505 312.92 309.955 311.92C309.405 310.92 308.605 310.17 307.58 309.62C306.555 309.07 305.38 308.795 304.03 308.795C302.68 308.795 301.48 309.07 300.455 309.62C299.43 310.17 298.63 310.92 298.08 311.92C297.53 312.92 297.255 314.07 297.255 315.37C297.255 316.67 297.53 317.82 298.08 318.82C298.63 319.82 299.43 320.595 300.455 321.145ZM306.355 318.045C305.78 318.745 305.005 319.07 304.03 319.07C303.055 319.07 302.28 318.745 301.705 318.045C301.13 317.37 300.855 316.47 300.855 315.37C300.855 314.27 301.13 313.395 301.705 312.695C302.28 312.02 303.055 311.67 304.03 311.67C305.005 311.67 305.78 312.02 306.355 312.695C306.93 313.395 307.23 314.27 307.23 315.37C307.23 316.47 306.93 317.37 306.355 318.045ZM323.22 309.62C322.32 309.07 321.32 308.795 320.17 308.795C319.27 308.795 318.495 308.97 317.82 309.32C317.145 309.67 316.595 310.145 316.17 310.72L315.82 308.945H312.745V326.795H316.27V320.17C317.195 321.37 318.495 321.945 320.145 321.945C321.295 321.945 322.32 321.695 323.22 321.145C324.12 320.595 324.82 319.845 325.32 318.845C325.82 317.87 326.095 316.72 326.095 315.395C326.095 314.095 325.82 312.92 325.32 311.92C324.82 310.92 324.12 310.17 323.22 309.62ZM321.645 318.045C321.045 318.745 320.295 319.07 319.345 319.07C318.395 319.07 317.62 318.745 317.07 318.045C316.495 317.37 316.22 316.47 316.22 315.345C316.22 314.245 316.495 313.37 317.07 312.695C317.62 312.02 318.395 311.67 319.345 311.67C320.295 311.67 321.045 312.02 321.645 312.695C322.22 313.37 322.52 314.245 322.52 315.345C322.52 316.445 322.22 317.345 321.645 318.045ZM346.354 314.145C345.629 313.445 344.704 312.97 343.579 312.695C344.604 312.445 345.429 311.995 346.054 311.345C346.679 310.695 347.004 309.87 347.004 308.82C347.004 307.42 346.429 306.27 345.304 305.42C344.179 304.57 342.604 304.145 340.604 304.145C338.679 304.145 337.154 304.645 336.004 305.595C334.854 306.57 334.279 307.895 334.279 309.57H337.804C337.804 308.77 338.104 308.145 338.654 307.67C339.204 307.22 339.904 306.97 340.754 306.97C341.529 306.97 342.154 307.17 342.654 307.545C343.129 307.945 343.379 308.47 343.379 309.145C343.379 309.87 343.104 310.445 342.579 310.87C342.054 311.295 341.304 311.495 340.354 311.495H338.829V314.37H340.554C341.579 314.37 342.379 314.57 342.929 314.97C343.479 315.37 343.754 315.92 343.754 316.62C343.754 317.395 343.454 317.995 342.904 318.445C342.354 318.895 341.654 319.12 340.804 319.12C339.804 319.12 339.004 318.845 338.379 318.27C337.729 317.72 337.404 316.945 337.404 315.97H333.829C333.829 317.845 334.429 319.32 335.654 320.37C336.854 321.42 338.504 321.945 340.604 321.945C341.954 321.945 343.154 321.745 344.204 321.32C345.229 320.92 346.029 320.32 346.579 319.57C347.129 318.82 347.429 317.92 347.429 316.92C347.429 315.77 347.054 314.845 346.354 314.145Z" fill="#6A379C"/>
<path d="M266.268 192.444C266.268 186.921 270.745 182.444 276.268 182.444H349.4C354.923 182.444 359.4 186.921 359.4 192.444V272.962H266.268V192.444Z" fill="url(#paint1_linear_14_1974)"/>
<path d="M133.386 64.3978C133.386 58.8749 137.863 54.3978 143.386 54.3978H216.517C222.04 54.3978 226.517 58.8749 226.517 64.3978V272.962H133.386V64.3978Z" fill="url(#paint2_linear_14_1974)"/>
<path d="M19.1183 304.295V307.52H24.1683V321.795H27.9183V307.52H32.9683V304.295H19.1183ZM35.1886 321.145C36.2136 321.695 37.4136 321.945 38.7636 321.945C40.1136 321.945 41.2886 321.695 42.3136 321.145C43.3386 320.595 44.1386 319.845 44.6886 318.845C45.2386 317.845 45.5386 316.695 45.5386 315.37C45.5386 314.07 45.2386 312.92 44.6886 311.92C44.1386 310.92 43.3386 310.17 42.3136 309.62C41.2886 309.07 40.1136 308.795 38.7636 308.795C37.4136 308.795 36.2136 309.07 35.1886 309.62C34.1636 310.17 33.3636 310.92 32.8136 311.92C32.2636 312.92 31.9886 314.07 31.9886 315.37C31.9886 316.67 32.2636 317.82 32.8136 318.82C33.3636 319.82 34.1636 320.595 35.1886 321.145ZM41.0886 318.045C40.5136 318.745 39.7386 319.07 38.7636 319.07C37.7886 319.07 37.0136 318.745 36.4386 318.045C35.8636 317.37 35.5886 316.47 35.5886 315.37C35.5886 314.27 35.8636 313.395 36.4386 312.695C37.0136 312.02 37.7886 311.67 38.7636 311.67C39.7386 311.67 40.5136 312.02 41.0886 312.695C41.6636 313.395 41.9636 314.27 41.9636 315.37C41.9636 316.47 41.6636 317.37 41.0886 318.045ZM57.9538 309.62C57.0538 309.07 56.0538 308.795 54.9038 308.795C54.0038 308.795 53.2288 308.97 52.5538 309.32C51.8788 309.67 51.3288 310.145 50.9038 310.72L50.5538 308.945H47.4788V326.795H51.0038V320.17C51.9288 321.37 53.2288 321.945 54.8788 321.945C56.0288 321.945 57.0538 321.695 57.9538 321.145C58.8538 320.595 59.5538 319.845 60.0538 318.845C60.5538 317.87 60.8288 316.72 60.8288 315.395C60.8288 314.095 60.5538 312.92 60.0538 311.92C59.5538 310.92 58.8538 310.17 57.9538 309.62ZM56.3788 318.045C55.7788 318.745 55.0288 319.07 54.0788 319.07C53.1288 319.07 52.3538 318.745 51.8038 318.045C51.2288 317.37 50.9538 316.47 50.9538 315.345C50.9538 314.245 51.2288 313.37 51.8038 312.695C52.3538 312.02 53.1288 311.67 54.0788 311.67C55.0288 311.67 55.7788 312.02 56.3788 312.695C56.9538 313.37 57.2538 314.245 57.2538 315.345C57.2538 316.445 56.9538 317.345 56.3788 318.045ZM75.1626 313.52L68.5376 319.02V321.795H81.3626V318.77H73.7376L77.6626 315.57C78.8876 314.57 79.7876 313.645 80.3876 312.77C80.9876 311.895 81.2876 310.845 81.2876 309.645C81.2876 307.97 80.7126 306.62 79.5876 305.62C78.4626 304.62 76.8876 304.12 74.8376 304.12C73.5626 304.12 72.4376 304.395 71.4876 304.895C70.5126 305.395 69.7626 306.095 69.2376 306.995C68.7126 307.895 68.4626 308.895 68.4626 309.995V310.47H72.0876V310.195C72.0876 309.27 72.3376 308.52 72.8376 307.97C73.3376 307.42 74.0126 307.145 74.8376 307.145C75.6876 307.145 76.3626 307.395 76.8626 307.845C77.3626 308.295 77.6376 308.945 77.6376 309.795C77.6376 310.47 77.4376 311.095 77.0376 311.645C76.6376 312.22 76.0126 312.845 75.1626 313.52Z" fill="#CE47A8"/>
<path d="M46.6295 69.6052C45.3059 69.6052 44.012 69.9977 42.9115 70.7331C41.8109 71.4684 40.9531 72.5136 40.4466 73.7365C39.9401 74.9594 39.8075 76.305 40.0658 77.6032C40.324 78.9014 40.9614 80.0938 41.8973 81.0298C42.8333 81.9657 44.0257 82.6031 45.3239 82.8613C46.6221 83.1196 47.9677 82.987 49.1906 82.4805C50.4135 81.974 51.4587 81.1162 52.194 80.0156C52.9294 78.9151 53.3219 77.6212 53.3219 76.2976C53.3219 74.5226 52.6168 72.8204 51.3618 71.5653C50.1067 70.3103 48.4045 69.6052 46.6295 69.6052Z" fill="white"/>
<path d="M46.6295 61.5744C42.9234 61.5744 39.3004 62.6734 36.2189 64.7324C33.1373 66.7915 30.7356 69.718 29.3173 73.1421C27.899 76.5661 27.5279 80.3338 28.2509 83.9688C28.974 87.6037 30.7587 90.9426 33.3793 93.5633C35.9999 96.1839 39.3389 97.9686 42.9738 98.6916C46.6087 99.4147 50.3764 99.0436 53.8005 97.6253C57.2245 96.207 60.1511 93.8052 62.2101 90.7237C64.2691 87.6421 65.3682 84.0192 65.3682 80.313C65.3625 75.345 63.3864 70.582 59.8735 67.0691C56.3605 63.5561 51.5976 61.5801 46.6295 61.5744ZM57.3266 92.2603C57.2999 90.5046 56.5846 88.8297 55.3348 87.5965C54.085 86.3632 52.4008 85.6702 50.6449 85.6669H42.6141C40.8583 85.6702 39.174 86.3632 37.9242 87.5965C36.6744 88.8297 35.9591 90.5046 35.9324 92.2603C33.5052 90.0929 31.7935 87.2395 31.024 84.0777C30.2545 80.916 30.4636 77.5951 31.6234 74.5547C32.7832 71.5144 34.8392 68.8981 37.519 67.0522C40.1988 65.2063 43.3761 64.2179 46.6302 64.2179C49.8842 64.2179 53.0615 65.2063 55.7413 67.0522C58.4212 68.8981 60.4771 71.5144 61.637 74.5547C62.7968 77.5951 63.0058 80.916 62.2363 84.0777C61.4669 87.2395 59.7538 90.0929 57.3266 92.2603Z" fill="white"/>
<path d="M179.513 8.29495C178.189 8.29495 176.895 8.68745 175.795 9.42282C174.694 10.1582 173.836 11.2034 173.33 12.4263C172.823 13.6491 172.691 14.9947 172.949 16.2929C173.207 17.5911 173.845 18.7836 174.78 19.7195C175.716 20.6555 176.909 21.2929 178.207 21.5511C179.505 21.8093 180.851 21.6768 182.074 21.1703C183.297 20.6637 184.342 19.806 185.077 18.7054C185.813 17.6049 186.205 16.3109 186.205 14.9873C186.205 13.2124 185.5 11.5102 184.245 10.2551C182.99 9.00004 181.288 8.29495 179.513 8.29495Z" fill="white"/>
<path d="M179.513 0.26416C175.807 0.26416 172.184 1.36316 169.102 3.42219C166.021 5.48122 163.619 8.40779 162.2 11.8318C160.782 15.2559 160.411 19.0236 161.134 22.6585C161.857 26.2935 163.642 29.6324 166.262 32.253C168.883 34.8737 172.222 36.6583 175.857 37.3814C179.492 38.1044 183.26 37.7333 186.684 36.315C190.108 34.8968 193.034 32.495 195.093 29.4134C197.152 26.3319 198.251 22.709 198.251 19.0028C198.246 14.0347 196.27 9.27179 192.757 5.75884C189.244 2.24589 184.481 0.269828 179.513 0.26416ZM190.21 30.95C190.183 29.1944 189.468 27.5195 188.218 26.2862C186.968 25.0529 185.284 24.36 183.528 24.3567H175.497C173.741 24.36 172.057 25.0529 170.807 26.2862C169.558 27.5195 168.842 29.1944 168.816 30.95C166.388 28.7827 164.677 25.9292 163.907 22.7675C163.138 19.6057 163.347 16.2848 164.507 13.2445C165.666 10.2042 167.722 7.58784 170.402 5.74195C173.082 3.89606 176.259 2.90768 179.513 2.90768C182.767 2.90768 185.945 3.89606 188.625 5.74195C191.304 7.58784 193.36 10.2042 194.52 13.2445C195.68 16.2848 195.889 19.6057 195.12 22.7675C194.35 25.9292 192.637 28.7827 190.21 30.95Z" fill="white"/>
<path d="M312.395 134.234C311.072 134.234 309.778 134.626 308.677 135.361C307.577 136.097 306.719 137.142 306.212 138.365C305.706 139.588 305.573 140.933 305.832 142.232C306.09 143.53 306.727 144.722 307.663 145.658C308.599 146.594 309.792 147.231 311.09 147.49C312.388 147.748 313.734 147.615 314.956 147.109C316.179 146.602 317.225 145.745 317.96 144.644C318.695 143.543 319.088 142.25 319.088 140.926C319.088 139.151 318.383 137.449 317.128 136.194C315.873 134.939 314.17 134.234 312.395 134.234Z" fill="white"/>
<path d="M312.395 126.203C308.689 126.203 305.066 127.302 301.985 129.361C298.903 131.42 296.501 134.346 295.083 137.77C293.665 141.194 293.294 144.962 294.017 148.597C294.74 152.232 296.525 155.571 299.145 158.192C301.766 160.812 305.105 162.597 308.74 163.32C312.375 164.043 316.142 163.672 319.566 162.254C322.99 160.835 325.917 158.434 327.976 155.352C330.035 152.27 331.134 148.647 331.134 144.941C331.128 139.973 329.152 135.21 325.639 131.697C322.126 128.184 317.363 126.208 312.395 126.203ZM323.092 156.889C323.066 155.133 322.35 153.458 321.101 152.225C319.851 150.991 318.167 150.299 316.411 150.295H308.38C306.624 150.299 304.94 150.991 303.69 152.225C302.44 153.458 301.725 155.133 301.698 156.889C299.271 154.721 297.559 151.868 296.79 148.706C296.02 145.544 296.229 142.223 297.389 139.183C298.549 136.143 300.605 133.526 303.285 131.68C305.965 129.835 309.142 128.846 312.396 128.846C315.65 128.846 318.827 129.835 321.507 131.68C324.187 133.526 326.243 136.143 327.403 139.183C328.563 142.223 328.772 145.544 328.002 148.706C327.233 151.868 325.52 154.721 323.092 156.889Z" fill="white"/>
<defs>
<linearGradient id="paint0_linear_14_1974" x1="47.0683" y1="121.052" x2="47.0683" y2="272.962" gradientUnits="userSpaceOnUse">
<stop stop-color="#E986E5"/>
<stop offset="1" stop-color="#BBD0FF"/>
</linearGradient>
<linearGradient id="paint1_linear_14_1974" x1="312.834" y1="182.444" x2="312.834" y2="272.962" gradientUnits="userSpaceOnUse">
<stop stop-color="#C150DD"/>
<stop offset="1" stop-color="#6A357D" stop-opacity="0"/>
</linearGradient>
<linearGradient id="paint2_linear_14_1974" x1="179.951" y1="54.3978" x2="179.951" y2="272.962" gradientUnits="userSpaceOnUse">
<stop stop-color="#795CFF"/>
<stop offset="1" stop-color="#795CFF" stop-opacity="0"/>
</linearGradient>
</defs>
</svg>
