<svg width="142" height="59" viewBox="0 0 142 59" fill="none" xmlns="http://www.w3.org/2000/svg">
<g filter="url(#filter0_b_14_1985)">
<circle cx="112.753" cy="29.4794" r="28.765" fill="#D9D9D9" fill-opacity="0.5"/>
<circle cx="112.753" cy="29.4794" r="28.265" stroke="white"/>
</g>
<path d="M122.985 46.5327C121.564 46.5327 120.356 46.0354 119.361 45.0406C118.366 44.0458 117.869 42.8378 117.869 41.4167C117.869 41.2178 117.883 41.0114 117.912 40.7977C117.94 40.584 117.983 40.3924 118.039 40.223L106.017 33.2311C105.534 33.6574 104.994 33.9917 104.397 34.2338C103.8 34.476 103.175 34.5965 102.521 34.5954C101.1 34.5954 99.8918 34.098 98.897 33.1032C97.9022 32.1084 97.4048 30.9005 97.4048 29.4794C97.4048 28.0582 97.9022 26.8503 98.897 25.8555C99.8918 24.8607 101.1 24.3633 102.521 24.3633C103.175 24.3633 103.8 24.4844 104.397 24.7266C104.994 24.9687 105.534 25.3024 106.017 25.7276L118.039 18.7357C117.983 18.5652 117.94 18.3736 117.912 18.161C117.883 17.9484 117.869 17.7421 117.869 17.542C117.869 16.1209 118.366 14.9129 119.361 13.9181C120.356 12.9234 121.564 12.426 122.985 12.426C124.406 12.426 125.614 12.9234 126.609 13.9181C127.604 14.9129 128.101 16.1209 128.101 17.542C128.101 18.9631 127.604 20.171 126.609 21.1658C125.614 22.1606 124.406 22.658 122.985 22.658C122.331 22.658 121.706 22.5375 121.109 22.2965C120.512 22.0554 119.972 21.7212 119.489 21.2937L107.466 28.2856C107.523 28.4562 107.566 28.6483 107.594 28.862C107.623 29.0758 107.637 29.2815 107.637 29.4794C107.637 29.6783 107.623 29.8847 107.594 30.0984C107.566 30.3121 107.523 30.5037 107.466 30.6731L119.489 37.665C119.972 37.2386 120.512 36.905 121.109 36.6639C121.706 36.4229 122.331 36.3018 122.985 36.3007C124.406 36.3007 125.614 36.7981 126.609 37.7929C127.604 38.7877 128.101 39.9956 128.101 41.4167C128.101 42.8378 127.604 44.0458 126.609 45.0406C125.614 46.0354 124.406 46.5327 122.985 46.5327Z" fill="#3E1D6C"/>
<g filter="url(#filter1_b_14_1985)">
<circle cx="29.3058" cy="29.4794" r="28.765" fill="#D9D9D9" fill-opacity="0.5"/>
<circle cx="29.3058" cy="29.4794" r="28.265" stroke="white"/>
</g>
<path d="M19.6808 43.2294C18.9246 43.2294 18.277 42.9599 17.738 42.4209C17.199 41.8819 16.9299 41.2347 16.9308 40.4794V22.6044C16.9308 22.2148 17.0628 21.888 17.3268 21.624C17.5908 21.36 17.9172 21.2285 18.3058 21.2294C18.6954 21.2294 19.0222 21.3614 19.2862 21.6254C19.5502 21.8894 19.6818 22.2157 19.6808 22.6044V40.4794H33.4308C33.8204 40.4794 34.1472 40.6114 34.4112 40.8754C34.6752 41.1394 34.8068 41.4657 34.8058 41.8544C34.8058 42.244 34.6738 42.5707 34.4098 42.8347C34.1458 43.0987 33.8195 43.2303 33.4308 43.2294H19.6808ZM25.1808 37.7294C24.4246 37.7294 23.777 37.4599 23.238 36.9209C22.699 36.3819 22.4299 35.7347 22.4308 34.9794V18.4794C22.4308 17.7231 22.7003 17.0755 23.2393 16.5365C23.7783 15.9975 24.4255 15.7285 25.1808 15.7294H37.5558C38.3121 15.7294 38.9597 15.9989 39.4987 16.5379C40.0377 17.0769 40.3068 17.724 40.3058 18.4794V34.9794C40.3058 35.7356 40.0363 36.3832 39.4973 36.9222C38.9583 37.4613 38.3112 37.7303 37.5558 37.7294H25.1808Z" fill="#3E1D6C"/>
<defs>
<filter id="filter0_b_14_1985" x="79.9879" y="-3.28564" width="65.53" height="65.53" filterUnits="userSpaceOnUse" color-interpolation-filters="sRGB">
<feFlood flood-opacity="0" result="BackgroundImageFix"/>
<feGaussianBlur in="BackgroundImageFix" stdDeviation="2"/>
<feComposite in2="SourceAlpha" operator="in" result="effect1_backgroundBlur_14_1985"/>
<feBlend mode="normal" in="SourceGraphic" in2="effect1_backgroundBlur_14_1985" result="shape"/>
</filter>
<filter id="filter1_b_14_1985" x="-3.45917" y="-3.28564" width="65.53" height="65.53" filterUnits="userSpaceOnUse" color-interpolation-filters="sRGB">
<feFlood flood-opacity="0" result="BackgroundImageFix"/>
<feGaussianBlur in="BackgroundImageFix" stdDeviation="2"/>
<feComposite in2="SourceAlpha" operator="in" result="effect1_backgroundBlur_14_1985"/>
<feBlend mode="normal" in="SourceGraphic" in2="effect1_backgroundBlur_14_1985" result="shape"/>
</filter>
</defs>
</svg>
