<svg width="323" height="34" viewBox="0 0 323 34" fill="none" xmlns="http://www.w3.org/2000/svg">
<path d="M32.0037 7.49164C30.8607 7.98811 29.6328 8.32357 28.342 8.47519C29.6739 7.69398 30.6703 6.46444 31.1454 5.01599C29.894 5.74458 28.5245 6.25743 27.0963 6.53224C26.1359 5.52704 24.8638 4.86078 23.4776 4.63689C22.0913 4.41301 20.6684 4.64403 19.4298 5.29409C18.1911 5.94414 17.2061 6.97687 16.6276 8.23193C16.0491 9.48698 15.9095 10.8942 16.2304 12.235C13.6949 12.1102 11.2145 11.4642 8.95012 10.3388C6.68577 9.21354 4.68811 7.63409 3.08678 5.703C2.53924 6.62885 2.2244 7.70231 2.2244 8.84553C2.22379 9.8747 2.48234 10.8881 2.9771 11.7958C3.47187 12.7036 4.18755 13.4775 5.06065 14.0491C4.04808 14.0175 3.05786 13.7493 2.17239 13.2668V13.3473C2.17228 14.7908 2.68164 16.1898 3.61403 17.307C4.54642 18.4242 5.84441 19.1908 7.28777 19.4767C6.34844 19.7259 5.36363 19.7626 4.40771 19.5841C4.81494 20.8261 5.60818 21.9122 6.67639 22.6903C7.7446 23.4684 9.0343 23.8996 10.3649 23.9235C8.10611 25.6617 5.31647 26.6046 2.44479 26.6004C1.9361 26.6006 1.42784 26.5715 0.92263 26.5132C3.83756 28.3504 7.23074 29.3254 10.6962 29.3216C22.4272 29.3216 28.8402 19.7974 28.8402 11.5372C28.8402 11.2689 28.8334 10.9978 28.8211 10.7294C30.0685 9.84515 31.1453 8.75012 32.0009 7.49567L32.0037 7.49164Z" fill="white"/>
<path fill-rule="evenodd" clip-rule="evenodd" d="M301.523 2.26605C303.129 2.19359 303.641 2.17749 307.731 2.17749C311.821 2.17749 312.333 2.19493 313.937 2.26605C315.542 2.33717 316.637 2.58809 317.595 2.95172C318.598 3.3234 319.508 3.90441 320.261 4.65582C321.028 5.39248 321.619 6.28345 321.997 7.26834C322.369 8.20761 322.624 9.28106 322.698 10.851C322.772 12.4276 322.788 12.9295 322.788 16.9375C322.788 20.9468 322.77 21.4486 322.698 23.0226C322.625 24.5925 322.369 25.666 321.997 26.6052C321.619 27.5903 321.027 28.4827 320.261 29.2204C319.508 29.9719 318.598 30.5515 317.595 30.9219C316.637 31.2868 315.542 31.5364 313.94 31.6089C312.333 31.6813 311.821 31.6974 307.731 31.6974C303.641 31.6974 303.129 31.68 301.523 31.6089C299.922 31.5378 298.827 31.2868 297.868 30.9219C296.864 30.5515 295.953 29.9709 295.2 29.2204C294.434 28.4833 293.842 27.5913 293.463 26.6066C293.092 25.6673 292.838 24.5939 292.764 23.0239C292.69 21.4473 292.674 20.9455 292.674 16.9375C292.674 12.9281 292.691 12.4263 292.764 10.8537C292.836 9.28106 293.092 8.20761 293.463 7.26834C293.842 6.28356 294.435 5.39156 295.202 4.65448C295.953 3.90374 296.863 3.32265 297.867 2.95172C298.825 2.58809 299.92 2.33851 301.522 2.26605H301.523ZM313.815 4.92285C312.228 4.85173 311.751 4.83697 307.731 4.83697C303.711 4.83697 303.234 4.85173 301.646 4.92285C300.178 4.98859 299.381 5.22878 298.85 5.43139C298.148 5.69976 297.645 6.01777 297.118 6.53437C296.619 7.01078 296.234 7.59075 295.993 8.23176C295.786 8.75239 295.541 9.53332 295.474 10.9731C295.402 12.5296 295.387 12.9966 295.387 16.9375C295.387 20.8784 295.402 21.3453 295.474 22.9018C295.541 24.3416 295.786 25.1225 295.993 25.6432C296.234 26.2832 296.619 26.8642 297.118 27.3406C297.604 27.8303 298.197 28.2074 298.85 28.4435C299.381 28.6461 300.178 28.8863 301.646 28.9521C303.234 29.0232 303.709 29.038 307.731 29.038C311.753 29.038 312.228 29.0232 313.815 28.9521C315.284 28.8863 316.081 28.6461 316.612 28.4435C317.314 28.1752 317.817 27.8572 318.344 27.3406C318.843 26.8642 319.228 26.2832 319.469 25.6432C319.675 25.1225 319.92 24.3416 319.988 22.9018C320.06 21.3453 320.075 20.8784 320.075 16.9375C320.075 12.9966 320.06 12.5296 319.988 10.9731C319.92 9.53332 319.675 8.75239 319.469 8.23176C319.195 7.54341 318.871 7.05097 318.344 6.53437C317.858 6.0447 317.266 5.66784 316.612 5.43139C316.081 5.22878 315.284 4.98859 313.815 4.92285ZM305.808 21.4876C306.882 21.9258 308.078 21.985 309.191 21.6549C310.305 21.3248 311.267 20.626 311.914 19.6778C312.56 18.7296 312.85 17.5908 312.735 16.4559C312.62 15.321 312.107 14.2605 311.283 13.4555C310.758 12.9408 310.123 12.5468 309.423 12.3017C308.724 12.0566 307.978 11.9665 307.239 12.038C306.5 12.1094 305.786 12.3406 305.149 12.7149C304.512 13.0892 303.968 13.5973 303.555 14.2026C303.142 14.8079 302.872 15.4954 302.763 16.2155C302.654 16.9356 302.709 17.6705 302.924 18.3672C303.14 19.0639 303.51 19.7051 304.009 20.2447C304.507 20.7842 305.122 21.2087 305.808 21.4876ZM302.258 11.5729C302.977 10.8684 303.83 10.3096 304.769 9.9283C305.708 9.54704 306.715 9.3508 307.731 9.3508C308.747 9.3508 309.754 9.54704 310.693 9.9283C311.632 10.3096 312.485 10.8684 313.204 11.5729C313.922 12.2774 314.492 13.1137 314.881 14.0342C315.27 14.9546 315.47 15.9412 315.47 16.9375C315.47 17.9338 315.27 18.9203 314.881 19.8408C314.492 20.7612 313.922 21.5976 313.204 22.302C311.752 23.7248 309.784 24.5241 307.731 24.5241C305.678 24.5241 303.71 23.7248 302.258 22.302C300.807 20.8793 299.991 18.9496 299.991 16.9375C299.991 14.9254 300.807 12.9957 302.258 11.5729ZM317.187 10.4806C317.365 10.316 317.508 10.1179 317.606 9.89826C317.705 9.6786 317.757 9.44177 317.761 9.2018C317.765 8.96183 317.719 8.7236 317.627 8.50121C317.535 8.27882 317.398 8.0768 317.225 7.9071C317.052 7.73739 316.846 7.60347 316.619 7.51324C316.392 7.42302 316.149 7.37834 315.904 7.38183C315.66 7.38533 315.418 7.43694 315.194 7.53361C314.97 7.63028 314.768 7.77004 314.6 7.94461C314.273 8.28413 314.094 8.73511 314.101 9.2018C314.108 9.6685 314.3 10.1142 314.637 10.4442C314.974 10.7742 315.428 10.9627 315.904 10.9695C316.38 10.9763 316.841 10.8009 317.187 10.4806Z" fill="white"/>
<path d="M94.8231 18.9492L95.7358 13.1214H90.0308V9.33945C90.0308 7.74537 90.8274 6.19054 93.3827 6.19054H95.976V1.22918C95.976 1.22918 93.623 0.835693 91.3726 0.835693C86.6747 0.835693 83.604 3.62734 83.604 8.68028V13.1224H78.3816V18.9502H83.604V33.0393H90.0308V18.9502L94.8231 18.9492Z" fill="white"/>
<path d="M174.523 9.56688C174.337 8.9164 173.974 8.3275 173.474 7.86277C172.96 7.38375 172.33 7.04109 171.643 6.86714C169.072 6.20294 158.773 6.20294 158.773 6.20294C154.479 6.15506 150.187 6.36567 145.919 6.8336C145.232 7.02039 144.603 7.37071 144.088 7.85338C143.581 8.33106 143.214 8.92012 143.023 9.56553C142.562 11.9966 142.339 14.465 142.355 16.9375C142.338 19.4078 142.561 21.8754 143.023 24.3094C143.21 24.9521 143.576 25.5385 144.084 26.0122C144.591 26.4858 145.224 26.828 145.919 27.0091C148.524 27.672 158.773 27.672 158.773 27.672C163.072 27.7199 167.37 27.5093 171.643 27.0413C172.33 26.8674 172.96 26.5247 173.474 26.0457C173.981 25.5721 174.341 24.983 174.521 24.3416C174.994 21.9115 175.223 19.4421 175.207 16.9683C175.243 14.4841 175.013 12.003 174.523 9.56553V9.56688ZM155.498 21.5318V12.3444L164.067 16.9388L155.498 21.5318Z" fill="white"/>
<path d="M234.566 3.02279C236.117 2.99927 237.659 3.01321 239.199 2.99927C239.293 4.77732 239.945 6.58849 241.273 7.84558C242.598 9.13404 244.472 9.72383 246.296 9.92332V14.6006C244.587 14.5457 242.87 14.1973 241.319 13.476C240.643 13.1763 240.014 12.7903 239.398 12.3957C239.39 15.7898 239.413 19.1795 239.376 22.5596C239.284 24.1835 238.737 25.7995 237.774 27.1376C236.224 29.3652 233.534 30.8175 230.771 30.8628C229.076 30.9577 227.383 30.5047 225.939 29.6701C223.545 28.2867 221.861 25.7542 221.616 23.0362C221.585 22.4605 221.58 21.8838 221.602 21.3078C221.815 19.0976 222.93 16.9833 224.662 15.545C226.624 13.8697 229.373 13.0717 231.946 13.5439C231.97 15.2645 231.9 16.9833 231.9 18.7038C230.724 18.331 229.351 18.4355 228.323 19.1351C227.572 19.6205 227.003 20.3346 226.707 21.1675C226.461 21.7564 226.531 22.4107 226.546 23.0362C226.827 24.9423 228.697 26.5444 230.693 26.371C232.017 26.3571 233.285 25.6044 233.975 24.5023C234.198 24.1164 234.447 23.7218 234.461 23.2679C234.577 21.1902 234.531 19.1211 234.545 17.0434C234.555 12.3609 234.531 7.69139 234.567 3.02366L234.566 3.02279Z" fill="white"/>
</svg>
