<svg width="32" height="35" viewBox="0 0 32 35" fill="none" xmlns="http://www.w3.org/2000/svg">
<path d="M20.2495 17.5638V32.4686C20.3267 33.036 20.1337 33.6413 19.6899 34.0385C19.5114 34.2138 19.2994 34.3529 19.0659 34.4479C18.8325 34.5428 18.5823 34.5916 18.3296 34.5916C18.0768 34.5916 17.8266 34.5428 17.5932 34.4479C17.3598 34.3529 17.1477 34.2138 16.9692 34.0385L13.0908 30.2366C12.8803 30.035 12.7203 29.7883 12.6232 29.516C12.5262 29.2436 12.4946 28.953 12.5312 28.6667V17.5638H12.4733L1.35895 3.60471C1.0456 3.2104 0.904212 2.71053 0.965676 2.21435C1.02714 1.71816 1.28646 1.26599 1.68698 0.956651C2.05359 0.691845 2.45881 0.540527 2.88331 0.540527H29.8974C30.3219 0.540527 30.7271 0.691845 31.0937 0.956651C31.4942 1.26599 31.7535 1.71816 31.815 2.21435C31.8765 2.71053 31.7351 3.2104 31.4217 3.60471L20.3074 17.5638H20.2495Z" fill="white"/>
</svg>
