<svg width="14" height="15" viewBox="0 0 14 15" fill="none" xmlns="http://www.w3.org/2000/svg">
<path d="M11.8039 4.24128L2.64713 14.1302C2.44078 14.3524 2.19557 14.4635 1.9115 14.4635C1.62742 14.4635 1.38256 14.3524 1.17689 14.1302C0.970545 13.9079 0.867371 13.6439 0.867371 13.3379C0.867371 13.032 0.970545 12.7683 1.17689 12.5468L10.3594 2.68573H2.51816C2.22584 2.68573 1.98062 2.57906 1.78253 2.36573C1.58443 2.15239 1.48573 1.88869 1.48642 1.57462C1.48642 1.2598 1.58547 0.995727 1.78356 0.782394C1.98166 0.569061 2.22652 0.462764 2.51816 0.463505H12.8356C13.1279 0.463505 13.3732 0.570172 13.5713 0.783505C13.7694 0.996838 13.8681 1.26054 13.8674 1.57462V12.6857C13.8674 13.0005 13.7683 13.2646 13.5702 13.4779C13.3721 13.6913 13.1273 13.7976 12.8356 13.7968C12.5433 13.7968 12.2981 13.6902 12.1 13.4768C11.9019 13.2635 11.8032 12.9998 11.8039 12.6857V4.24128Z" fill="#52D25F"/>
</svg>
